<svg xmlns="http://www.w3.org/2000/svg" viewBox="0 0 246.37 36.44"><defs><style>.cls-1{fill:#fff;}</style></defs><title>자산 2everyday logo</title><g id="레이어_2" data-name="레이어 2"><g id="레이어_1-2" data-name="레이어 1"><path class="cls-1" d="M6.42,0H28.78L27.7,6.11H12.64l-1.48,8.37H24l-1.07,6.1H10.08L8.36,30.33H24L22.9,36.44H0Z"/><path class="cls-1" d="M31.49,0h7.63l1.7,17.73q.3,3,.47,5.86t.51,5.91H42c.93-2.07,1.79-4,2.6-5.91s1.66-3.83,2.58-5.86L55.07,0h7.39L44.86,36.44H36.19Z"/><path class="cls-1" d="M66.15,0H88.51L87.43,6.11H72.37l-1.48,8.37h12.8l-1.07,6.1H69.81l-1.72,9.75H83.7l-1.07,6.11H59.73Z"/><path class="cls-1" d="M109.36,36.44l-5-13.79H99.24L96.81,36.44H89.52L95.94,0h12.71a24.17,24.17,0,0,1,5.27.54,10,10,0,0,1,4,1.82,7,7,0,0,1,2.3,3.4,11,11,0,0,1,.13,5.27,12.92,12.92,0,0,1-3.08,6.7,14.32,14.32,0,0,1-5.71,3.79l5.89,14.92Zm-9.11-19.55H105a9.78,9.78,0,0,0,5.65-1.45A6.46,6.46,0,0,0,113.25,11c.35-2,0-3.34-1.12-4.11a9.16,9.16,0,0,0-5.19-1.16h-4.73Z"/><path class="cls-1" d="M131.12,23.09,124.26,0H132l2.08,8.86q.42,2.07.84,4c.28,1.29.58,2.65.89,4.06H136c.81-1.41,1.6-2.77,2.37-4.06s1.54-2.64,2.31-4L145.87,0h7.59L138.4,23.09l-2.35,13.35h-7.29Z"/><path class="cls-1" d="M157.15,0h10a22.44,22.44,0,0,1,7.32,1.08,11.61,11.61,0,0,1,5.08,3.33,11.89,11.89,0,0,1,2.6,5.64,22.08,22.08,0,0,1-.16,8,26.62,26.62,0,0,1-2.67,8,19.51,19.51,0,0,1-4.56,5.73,18.29,18.29,0,0,1-6.14,3.45,23.58,23.58,0,0,1-7.5,1.16H150.72Zm4.16,30.58a14.94,14.94,0,0,0,4.73-.72,10.65,10.65,0,0,0,3.86-2.22,12.63,12.63,0,0,0,2.88-3.87,21.18,21.18,0,0,0,1.77-5.72,18.32,18.32,0,0,0,.24-5.7,7.76,7.76,0,0,0-1.52-3.8,6.61,6.61,0,0,0-3.1-2.12,13.54,13.54,0,0,0-4.48-.67h-2.27L159,30.58Z"/><path class="cls-1" d="M204.12,27.08H192.31l-4.21,9.36h-7.39L198.8,0h8.57l5.3,36.44H205Zm-.57-5.66-.38-4c-.23-1.9-.41-3.87-.56-5.91s-.33-4-.54-6h-.2q-1.22,3-2.54,6t-2.66,5.88l-1.79,4Z"/><path class="cls-1" d="M224,23.09,217.17,0h7.73L227,8.86c.29,1.38.57,2.72.85,4s.57,2.65.88,4.06h.2c.8-1.41,1.59-2.77,2.36-4.06s1.54-2.64,2.31-4L238.79,0h7.58L231.32,23.09,229,36.44h-7.29Z"/></g></g></svg>