<svg width="23" height="29" viewBox="0 0 23 29" fill="none" xmlns="http://www.w3.org/2000/svg">
<path d="M8.59941 9.11515C8.59941 9.67835 8.59941 10.2105 8.59941 10.7737C8.52765 10.7737 8.45948 10.7737 8.38772 10.7737C6.50405 10.7737 4.62396 10.7737 2.74029 10.7737C2.66136 10.7737 2.58601 10.7702 2.50708 10.7771C2.06217 10.7978 1.75002 11.0985 1.72132 11.5234C1.71773 11.5753 1.71773 11.6271 1.71773 11.6789C1.71773 16.5992 1.71773 21.516 1.71773 26.4362C1.71773 26.5261 1.72132 26.6228 1.73926 26.7092C1.81819 27.0789 2.09805 27.3104 2.48914 27.3415C2.55013 27.3449 2.60754 27.3449 2.66853 27.3449C8.34466 27.3449 14.0208 27.3449 19.6969 27.3449C19.7759 27.3449 19.8548 27.3484 19.9301 27.338C20.3428 27.2828 20.6154 26.996 20.6441 26.5952C20.6477 26.533 20.6477 26.4673 20.6477 26.4051C20.6477 21.5091 20.6477 16.613 20.6477 11.7169C20.6477 11.6651 20.6477 11.6133 20.6477 11.5615C20.6298 11.0985 20.3033 10.7875 19.8225 10.7806C19.3202 10.7737 18.8179 10.7771 18.3156 10.7771C16.8696 10.7771 15.4237 10.7771 13.9777 10.7771C13.9132 10.7771 13.8486 10.7771 13.7732 10.7771C13.7732 10.2243 13.7732 9.68527 13.7732 9.13243C13.8127 9.12897 13.8557 9.11861 13.9024 9.11861C15.8865 9.11861 17.8707 9.11515 19.8548 9.12206C21.0101 9.12552 21.9789 9.85803 22.2731 10.9291C22.3341 11.1503 22.3628 11.3818 22.3664 11.6098C22.3699 16.575 22.3735 21.5402 22.3699 26.5053C22.3699 27.9392 21.2613 29 19.7723 29C14.0495 29 8.32673 29 2.60036 29C1.11137 29 0.00269096 27.9358 0.00269096 26.5019C-0.000896986 21.5367 -0.000896986 16.5715 0.00269096 11.6064C0.00269096 10.1863 1.09701 9.12206 2.56807 9.11861C4.52709 9.1117 6.48611 9.11515 8.44872 9.11515C8.49177 9.11515 8.53841 9.11515 8.59941 9.11515Z" fill="white"/>
<path d="M11.9914 3.22429C11.9914 8.50072 11.9914 13.7736 11.9914 19.0571C11.4497 19.0571 10.9217 19.0571 10.3699 19.0571C10.3699 13.7771 10.3699 8.50072 10.3699 3.18153C9.19187 4.42137 8.04432 5.63271 6.90692 6.82979C6.52102 6.4272 6.15204 6.03886 5.79999 5.6719C7.5941 3.7872 9.39836 1.88469 11.1891 0C12.9663 1.86688 14.7739 3.76939 16.5714 5.66121C16.2194 6.03173 15.8504 6.42007 15.4848 6.80129C14.3508 5.60777 13.2032 4.39999 12.0523 3.18866C12.032 3.19935 12.0117 3.2136 11.9914 3.22429Z" fill="white"/>
</svg>
